<svg xmlns="http://www.w3.org/2000/svg" xmlns:xlink="http://www.w3.org/1999/xlink" version="1.1" x="0px" y="0px" viewBox="0 0 8 10" enable-background="new 0 0 8 8" xml:space="preserve"><path d="M4.71,1.706L1.707,4.708c-0.393,0.391-1.025,0.391-1.415,0c-0.39-0.39-0.39-1.022,0-1.412l3.004-3.003  c0.39-0.39,1.024-0.39,1.414,0C5.101,0.684,5.101,1.315,4.71,1.706L4.71,1.706z M7.707,4.708c-0.392,0.391-1.024,0.391-1.414,0  L3.288,1.706c-0.391-0.39-0.391-1.022,0-1.413c0.391-0.39,1.023-0.39,1.414,0l3.005,3.003C8.098,3.686,8.098,4.318,7.707,4.708  L7.707,4.708z M4.003,8c-0.553,0-1-0.447-1-0.999V2.006c0-0.553,0.447-0.999,1-0.999c0.551,0,1,0.446,1,0.999v4.995  C5.003,7.553,4.554,8,4.003,8L4.003,8z"/><text x="0" y="23" fill="#000000" font-size="5px" font-weight="bold" font-family="'Helvetica Neue', Helvetica, Arial-Unicode, Arial, Sans-serif">Created by Muhamad Ulum</text><text x="0" y="28" fill="#000000" font-size="5px" font-weight="bold" font-family="'Helvetica Neue', Helvetica, Arial-Unicode, Arial, Sans-serif">from the Noun Project</text></svg>